# xmcd
#
# Track frame offsets: 
#        150
#        11870
#        24320
#        34795
#        48725
#        59067
#        70172
#        81542
#        94165
#        106097
#
# Disc length: 1587 seconds
#
# Revision: 0
# Processed by: cddbd v1.5.1PL2 Copyright (c) Steve Scherf et al.
# Submitted via: ExactAudioCopy v0.95b3
#
DISCID=8706310a
DTITLE=Patsy Cline - Country Music Hall Of Fame 1973
DYEAR=1998
DGENRE=Country
TTITLE0=Walkin' After Midnight
TTITLE1=A Poor Man's Roses (Or A Rich Mans Gold)
TTITLE2=Lovesick Blues
TTITLE3=A Church, A Courtroom and Goodby
TTITLE4=Too Many Secrets
TTITLE5=Stop The World (And Let Me Off)
TTITLE6=Just Out Of Reach
TTITLE7=Fingerprints
TTITLE8=If Only I Could Stay Asleep
TTITLE9=Life's Railway To Heaven
EXTD=
EXTT0=
EXTT1=
EXTT2=
EXTT3=
EXTT4=
EXTT5=
EXTT6=
EXTT7=
EXTT8=
EXTT9=
PLAYORDER=
